<svg xmlns="http://www.w3.org/2000/svg" viewBox="0 0 800 520">
  <defs>
    <linearGradient id="bg" x1="0" y1="0" x2="1" y2="1">
      <stop offset="0" stop-color="#e7f2ea" />
      <stop offset="1" stop-color="#cfe6d6" />
    </linearGradient>
    <linearGradient id="accent" x1="0" y1="0" x2="1" y2="1">
      <stop offset="0" stop-color="#2f6f4e" />
      <stop offset="1" stop-color="#4f8f63" />
    </linearGradient>
  </defs>
  <rect width="800" height="520" rx="32" fill="url(#bg)" />
  <rect x="60" y="70" width="380" height="220" rx="24" fill="#ffffff" stroke="#c8ddcf" stroke-width="3" />
  <rect x="90" y="110" width="160" height="18" rx="9" fill="#d8e8dd" />
  <rect x="90" y="150" width="260" height="14" rx="7" fill="#d8e8dd" />
  <rect x="90" y="178" width="220" height="14" rx="7" fill="#d8e8dd" />
  <circle cx="585" cy="175" r="86" fill="#ffffff" stroke="#c8ddcf" stroke-width="3" />
  <path d="M540 180c20-40 70-40 90 0" fill="none" stroke="url(#accent)" stroke-width="10" stroke-linecap="round" />
  <path d="M555 215c12-20 38-20 50 0" fill="none" stroke="url(#accent)" stroke-width="10" stroke-linecap="round" />
  <rect x="120" y="330" width="560" height="130" rx="28" fill="#ffffff" stroke="#c8ddcf" stroke-width="3" />
  <rect x="160" y="365" width="210" height="14" rx="7" fill="#d8e8dd" />
  <rect x="160" y="392" width="320" height="14" rx="7" fill="#d8e8dd" />
  <rect x="160" y="419" width="280" height="14" rx="7" fill="#d8e8dd" />
</svg>
